# xmcd CD database file
# Copyright (C) 1993-1998 Ti Kan
# Generated: Sat Apr 18 15:35:28 1998 by KSCD
# 
# Track frame offsets:
#       180
#       18128
#       44807
#       73713
#       92108
#       104221
#       122769
#       147626
#       167650
#
# Disc length: 2645 seconds
#
# Revision: 2
# Processed by: cddbd v1.4b41PL1 Copyright (c) Steve Scherf et al.
# Submitted via: Kscd 0.8.0
#
DISCID=870a5309
DTITLE=Landon Spradlin - No More Blue Mondays
DYEAR=1900
DGENRE=
TTITLE0=Seminary
TTITLE1=No More Blue Mondays
TTITLE2=First Fruits
TTITLE3=Drift Away
TTITLE4=I Got Jesus Name
TTITLE5=My God
TTITLE6=He Is There
TTITLE7=My Friend Jesus
TTITLE8=My Help
EXTD=
EXTT0=
EXTT1=
EXTT2=
EXTT3=
EXTT4=
EXTT5=
EXTT6=
EXTT7=
EXTT8=
PLAYORDER=
